<?xml version="1.0" encoding="UTF-8"?>
<svg version="1.1" xmlns="http://www.w3.org/2000/svg" width="415" height="401">
<path d="M0 0 C2.83958631 2.66140132 4.86851561 5.17258565 6.7421875 8.578125 C7.49411377 9.92934448 7.49411377 9.92934448 8.26123047 11.30786133 C8.79377441 12.27876709 9.32631836 13.24967285 9.875 14.25 C11.04018956 16.34327081 12.20690425 18.43569327 13.375 20.52734375 C13.97441406 21.60226074 14.57382813 22.67717773 15.19140625 23.78466797 C18.02815833 28.82786788 20.94831416 33.82111449 23.875 38.8125 C28.98819511 47.54549657 34.07073926 56.29531473 39.125 65.0625 C39.7526123 66.15087158 40.38022461 67.23924316 41.02685547 68.3605957 C41.61869629 69.38757568 42.21053711 70.41455566 42.8203125 71.47265625 C43.38363281 72.43494141 43.94695312 73.39722656 44.52734375 74.38867188 C46 77 46 77 46.97265625 79.14257812 C49.67569562 84.97840277 54.06985473 86.26819167 59.75 88.375 C61.65378263 89.13772503 63.55481422 89.90735027 65.453125 90.68359375 C66.39349609 91.06757324 67.33386719 91.45155273 68.30273438 91.84716797 C85.14786613 99.04690658 98.8613063 110.48695838 112 123 C113.07701172 123.99773437 113.07701172 123.99773437 114.17578125 125.015625 C140.43666909 150.06609116 157.59821109 189.56982585 159.16113281 225.7277832 C159.5757927 263.47870884 153.27978127 295.07606583 134 328 C143.405 327.505 143.405 327.505 153 327 C152.01 325.72125 151.02 324.4425 150 323.125 C148.5671331 320.27532073 147.71541496 318.22879206 148.45166016 315.04980469 C149.90793552 311.18267494 151.78682218 307.53785813 153.64453125 303.8515625 C156.08806135 299.00013094 157.84930428 294.04239531 159.5 288.875 C159.88152222 287.69260742 159.88152222 287.69260742 160.27075195 286.48632812 C160.85505275 284.66005602 161.42880695 282.83041409 162 281 C162.66 281 163.32 281 164 281 C164.35078613 281.63164062 164.70157227 282.26328125 165.06298828 282.9140625 C173.25801232 297.6528942 181.62090263 312.27823808 190.14550781 326.82910156 C193.20848645 332.06632729 196.25846152 337.31100893 199.29812622 342.5617981 C200.29363065 344.27993349 201.29217228 345.99630796 202.29077148 347.71264648 C202.89219971 348.75235596 203.49362793 349.79206543 204.11328125 350.86328125 C204.64735596 351.78407471 205.18143066 352.70486816 205.73168945 353.65356445 C207 356 207 356 208 359 C206.76131165 358.99032196 205.52262329 358.98064392 204.24639893 358.97067261 C192.53589251 358.88574457 180.82626365 358.8538553 169.11545181 358.87302971 C163.09553809 358.88120499 157.07684146 358.87111625 151.05712891 358.81835938 C145.2404833 358.76806957 139.42566349 358.766969 133.60890961 358.79904556 C131.3970825 358.80277812 129.185152 358.78920152 126.97354889 358.75750351 C112.29680985 358.24223719 112.29680985 358.24223719 99.7890625 364.89453125 C98.16317792 366.56816418 96.56200157 368.26659325 95 370 C92.66491815 371.84337698 90.23838259 373.49653051 87.75 375.125 C86.81994141 375.73746582 86.81994141 375.73746582 85.87109375 376.36230469 C71.46977358 385.63369568 55.51598576 392.52987881 38.9375 396.75 C38.15922852 396.94875732 37.38095703 397.14751465 36.57910156 397.35229492 C24.39447474 400.28772805 12.32761853 401.36734276 -0.1875 401.3125 C-0.86286804 401.31034485 -1.53823608 401.3081897 -2.23406982 401.30596924 C-13.40169556 401.24906037 -24.11943349 400.58159154 -35 398 C-36.2387085 397.70996094 -36.2387085 397.70996094 -37.50244141 397.4140625 C-78.07445363 387.58026264 -113.62531508 362.44518696 -135.51123047 326.77416992 C-137.33777268 323.75399525 -139.13930717 320.71942984 -140.921875 317.6730957 C-142.02077678 315.83830931 -142.02077678 315.83830931 -144 314 C-146.64 318.29 -149.28 322.58 -152 327 C-150.68 326.9175 -149.36 326.835 -148 326.75 C-144.44936034 327.1334024 -143.29367333 327.66585772 -140.90234375 330.38671875 C-139.55511883 332.47853319 -138.24551876 334.594921 -136.96875 336.73046875 C-132.61845524 343.9550654 -126.88237401 350.25549133 -121.25 356.50390625 C-120 358 -120 358 -120 359 C-148.71 359 -177.42 359 -207 359 C-200.17448738 345.34897476 -200.17448738 345.34897476 -196.5625 339.375 C-195.69285154 337.91605474 -194.82444636 336.45636795 -193.95703125 334.99609375 C-193.4873291 334.2057373 -193.01762695 333.41538086 -192.53369141 332.60107422 C-189.56672196 327.56922251 -186.66293225 322.50075615 -183.75 317.4375 C-178.05573909 307.54804099 -172.32745548 297.67915231 -166.56738281 287.82788086 C-166.0256543 286.90112549 -165.48392578 285.97437012 -164.92578125 285.01953125 C-164.45567627 284.21620361 -163.98557129 283.41287598 -163.5012207 282.58520508 C-163.00581787 281.7320874 -162.51041504 280.87896973 -162 280 C-161.63791443 279.46787903 -161.27582886 278.93575806 -160.902771 278.38751221 C-157.95859058 273.84596577 -157.7186178 271.1626489 -158.7265625 265.6953125 C-160.17197736 256.73037556 -160.40029542 247.9432909 -160.375 238.875 C-160.3737915 238.06640533 -160.37258301 237.25781067 -160.37133789 236.42471313 C-160.31818204 223.26458766 -159.52539683 210.74603392 -156 198 C-155.7421875 197.05479492 -155.484375 196.10958984 -155.21875 195.13574219 C-147.70828059 168.54485569 -134.61727975 145.2634651 -115.43310547 125.47998047 C-114.10064523 124.1039372 -112.78588058 122.71081911 -111.47265625 121.31640625 C-83.82812464 92.59656061 -44.40316632 77.69590621 -5.0625 76.4375 C-3.80630859 76.39431641 -2.55011719 76.35113281 -1.25585938 76.30664062 C1.82931384 76.20106436 4.9146435 76.10007713 8 76 C5.69 72.04 3.38 68.08 1 64 C-0.32 65.65 -1.64 67.3 -3 69 C-5.39086914 69.71948242 -5.39086914 69.71948242 -8.03515625 69.85546875 C-9.01033203 69.92056641 -9.98550781 69.98566406 -10.99023438 70.05273438 C-12.00408203 70.09720703 -13.01792969 70.14167969 -14.0625 70.1875 C-16.05369597 70.30065091 -18.04459646 70.41912908 -20.03515625 70.54296875 C-21.02016113 70.60403809 -22.00516602 70.66510742 -23.02001953 70.72802734 C-26.91627341 71.08362515 -30.69771569 71.79312716 -34.52514648 72.59106445 C-37.06183861 73.01021798 -39.43381606 73.06972858 -42 73 C-28.60426621 48.34159182 -14.94375451 23.76149786 0 0 Z M61 103 C63.42841375 110.08287343 67.46540185 113.6239609 73.875 117.1875 C91.14001294 127.21132619 105.07641411 139.79354216 119 154 C119 146.19056293 107.81297571 137.53425804 102.5 132.125 C84.09460239 113.14308891 84.09460239 113.14308891 61 103 Z M-97.46289062 152.26757812 C-113.63260227 170.491891 -124.44630351 193.93415835 -128 218 C-127.67 218.99 -127.34 219.98 -127 221 C-126.58862793 220.27748047 -126.17725586 219.55496094 -125.75341797 218.81054688 C-121.57521655 211.4758168 -117.38653594 204.14718063 -113.18945312 196.82324219 C-111.80000694 194.39834011 -110.41367547 191.97175296 -109.02929688 189.54394531 C-99.93319101 173.60423929 -90.94182196 158.17928658 -78 145 C-77.39027344 144.37738281 -76.78054687 143.75476563 -76.15234375 143.11328125 C-63.4833343 131.14362264 -39.95488146 119.08954679 -22.25 118.375 C-18.13195823 118.66914584 -15.79414811 119.85658337 -13 123 C-10.34387761 126.86173822 -10.71831594 131.11857907 -10.625 135.625 C-10.02749356 149.23381757 -5.32637296 156.71800475 3.69726562 166.57568359 C4.78981536 167.77019917 5.8587934 168.986216 6.921875 170.20703125 C14.05925511 178.00716808 21.86860819 180.16372874 32.0625 181.4375 C40.6620431 182.53409132 47.05426309 183.90623694 52.59765625 191.0625 C57.07121893 197.84138049 57.75017638 203.95644213 57 212 C55.40652718 216.88434062 52.28797463 220.24344488 48 223 C41.86938364 225.7866438 35.29580428 225.92872997 28.875 224 C23.39276483 221.69746123 19.48578039 216.99753597 16.8828125 211.74609375 C15.96571339 208.89334742 15.48264562 206.08991167 15.06518555 203.12646484 C12.65884415 186.41441449 4.65684334 176.64279684 -7 165 C-7.928125 164.06414062 -8.85625 163.12828125 -9.8125 162.1640625 C-15.28860092 156.74663409 -20.0894126 154.90958645 -27.8125 154.625 C-38.74229849 154.84116412 -47.09151803 160.83098204 -54.52734375 168.48046875 C-55.67194425 169.70884861 -56.80853383 170.94473584 -57.9375 172.1875 C-58.53868652 172.84242432 -59.13987305 173.49734863 -59.75927734 174.17211914 C-69.05188754 184.36710576 -76.56124092 192.97668403 -79.9375 206.5625 C-81.39592581 212.37982443 -82.8062466 216.6111883 -87 221 C-88.06863281 221.47953125 -89.13726562 221.9590625 -90.23828125 222.453125 C-95.73127348 225.49264302 -98.03290573 231.20396809 -100.875 236.5625 C-101.45507812 237.61630859 -102.03515625 238.67011719 -102.6328125 239.75585938 C-105.6601549 245.22490911 -105.6601549 245.22490911 -108 251 C-92.87916921 251.54434991 -83.48419604 249.83709634 -72.234375 239.4453125 C-61.87798427 229.57473001 -56.94016181 220.72565445 -55.125 206.4375 C-53.9390378 198.30792038 -51.43625658 192.60185944 -44.875 187.5 C-38.95520265 183.35383843 -33.04324978 183.3431166 -26 184 C-21.11565938 185.59347282 -17.75655512 188.71202537 -15 193 C-12.07639922 199.28574167 -12.01180861 206.58157377 -14 213.1875 C-16.32869086 218.65437901 -21.0671289 222.52606989 -26.29296875 225.15234375 C-29.6854693 226.2146419 -32.8940019 226.41708439 -36.4375 226.6875 C-52.85809323 228.50156668 -63.70724417 237.70832188 -74 250 C-79.60040767 257.36783671 -80.11462973 264.94753987 -79 274 C-76.50034118 284.01259987 -70.33811896 292.01712627 -63.00390625 299.03125 C-61.04252519 300.95822086 -59.27295361 302.96241827 -57.5 305.0625 C-48.47130606 315.48337351 -39.86254835 319.809061 -26.5859375 322.875 C-23 324 -23 324 -20.40625 326.109375 C-14.91683866 329.1562501 -9.28251915 328.41676614 -3.125 328.25 C-1.86429687 328.23195313 -0.60359375 328.21390625 0.6953125 328.1953125 C3.79765614 328.14830729 6.8984338 328.08260676 10 328 C8.57327779 323.38937204 7.15644488 320.63585435 3.8125 317.125 C0.93827652 314.08170455 -1.77895989 311.03119355 -4.375 307.75 C-10.76410989 300.46080766 -19.54516253 297.06385651 -29 296 C-29.82371094 295.96003906 -30.64742188 295.92007813 -31.49609375 295.87890625 C-38.5184008 295.51738342 -43.5815685 293.57121971 -49 289 C-54.20356339 283.1641311 -55.89158848 277.53232795 -55.453125 269.76953125 C-54.54070551 264.19276038 -52.47102276 261.14079316 -47.9375 257.625 C-41.82339323 254.24272817 -35.24261697 253.90470542 -28.48828125 255.6484375 C-22.14423633 258.16882207 -17.85037929 262.15640513 -14.88671875 268.3125 C-13.86105096 271.42113191 -13.56126518 274.30533224 -13.25 277.5625 C-11.22438254 291.8758704 -3.80537677 299.98955566 6.38720703 309.47900391 C7.85430518 310.86259783 9.27209098 312.29801423 10.68359375 313.73828125 C14.9159381 317.87070516 19.9564786 321.53511374 26 322 C27.546875 322.1546875 27.546875 322.1546875 29.125 322.3125 C45.0702562 321.02659224 55.48885574 309.46818281 65.28125 297.984375 C66.41574302 296.67455124 67.58252146 295.39192935 68.78125 294.140625 C76.0193163 286.45811604 79.7188737 277.67809899 82.234375 267.54296875 C83.8436329 262.19793358 86.530163 258.29892572 90.6875 254.625 C96.53138663 251.75818769 102.52409043 250.86147787 109 251 C107.2010497 245.92365174 104.50973545 241.36286389 101.875 236.6875 C101.17310547 235.43356445 101.17310547 235.43356445 100.45703125 234.15429688 C99.3073741 232.10133767 98.15496198 230.04997798 97 228 C83.52978547 229.01365103 75.80415354 236.35009313 67 246 C66.06607422 247.00546875 66.06607422 247.00546875 65.11328125 248.03125 C59.27656427 254.97062132 57.05690761 263.90197823 56.5 272.8125 C56.07943179 279.37909913 53.88794793 283.75487273 49.6875 288.75 C43.03770987 294.31726616 38.81846732 295.69517311 30.09375 295.375 C24.89025107 294.74427286 22.1291577 293.2652931 18.47265625 289.375 C14.80242721 284.49491707 14.30172579 279.90997162 14.58203125 273.90234375 C15.4308206 268.00841398 17.62518436 264.40606145 21.75 260.1875 C27.5315544 256.29606915 32.57055968 254.99654406 39.375 254.125 C54.86515951 251.89170134 65.57931426 240.87340865 75 229 C79.96264348 221.33692046 81.82432235 215.16175407 81 206 C78.22533345 193.79815312 69.90667944 185.72600515 61.6328125 176.86328125 C59.46258339 174.50307659 57.40992995 172.10004271 55.375 169.625 C48.68801986 161.93017357 39.90243188 157.80923387 30.0625 155.75 C22.65548153 153.9771422 18.53558629 150.32795701 14 144.375 C12.26898432 138.53282206 11.70813731 131.74362361 13.7265625 125.89453125 C15.1798143 123.50198255 16.90976512 122.05765006 19.25 120.5625 C24.77576102 119.4322307 29.93170027 120.6242345 35 123 C34.35891863 121.32332564 33.68528045 119.65910004 33 118 C32.5978125 116.453125 32.5978125 116.453125 32.1875 114.875 C28.47827387 110.00001708 22.81436302 109.91661723 17 109 C16.25492188 108.86851563 15.50984375 108.73703125 14.7421875 108.6015625 C-27.70566066 102.44246296 -68.99542592 121.71966533 -97.46289062 152.26757812 Z M82 139 C83.59862133 145.03479551 86.79098105 149.96579713 90 155.25 C91.18129724 157.22560085 92.36096441 159.20217725 93.5390625 161.1796875 C94.12461914 162.16163086 94.71017578 163.14357422 95.31347656 164.15527344 C114.13594777 195.90388873 124.87136663 227.81777639 116.97265625 265.26171875 C115.15453222 272.24944846 112.77795734 278.99589737 106.40625 282.9921875 C102.42577776 284.65933334 98.23747622 285.52379957 94.04663086 286.49731445 C82.16563869 289.30180515 74.45786315 295.4953437 66 304 C65.16984375 304.83015625 64.3396875 305.6603125 63.484375 306.515625 C54.27050115 316.07713399 54.27050115 316.07713399 50 328 C60.71515408 329.44102916 60.71515408 329.44102916 70.390625 326.171875 C71.85891976 323.83805913 72.90048071 321.52407895 74 319 C78.96573722 311.95807093 86.22938791 307.24690355 94.6875 305.5625 C96.12160891 305.35061766 97.55844358 305.153224 99 305 C97.75814123 310.85657659 95.75238506 313.98668955 91.5625 318.1875 C87.02353563 322.87217014 87.02353563 322.87217014 83 328 C86.98007459 329.05769699 90.02665894 329.15526583 94 328 C114.11648424 312.2772796 123.84625136 278.98039484 127.6171875 255.08984375 C129.32419576 239.75553925 128.51094691 224.00607301 125 209 C124.83902832 208.30390625 124.67805664 207.6078125 124.51220703 206.890625 C118.09251475 180.24982707 103.00923431 157.47281096 83 139 C82.67 139 82.34 139 82 139 Z M-49 147 C-48 149 -48 149 -48 149 Z M49 147 C50 149 50 149 50 149 Z M-50 149 C-49 151 -49 151 -49 151 Z M50 149 C51.33121013 155.80396289 54.87519254 160.51863821 59 166 C59 161.90540797 57.03072724 159.23249165 55 155.8125 C54.6184375 155.15830078 54.236875 154.50410156 53.84375 153.83007812 C52.90161068 152.21666455 51.95155734 150.60787702 51 149 C50.67 149 50.34 149 50 149 Z M-51 151 C-52.03048037 152.6188996 -53.04914678 154.24532489 -54.0625 155.875 C-54.63097656 156.77992188 -55.19945312 157.68484375 -55.78515625 158.6171875 C-56.18605469 159.40351563 -56.58695313 160.18984375 -57 161 C-56.67 161.66 -56.34 162.32 -56 163 C-54.96951963 161.3811004 -53.95085322 159.75467511 -52.9375 158.125 C-52.36902344 157.22007812 -51.80054688 156.31515625 -51.21484375 155.3828125 C-50.81394531 154.59648437 -50.41304687 153.81015625 -50 153 C-50.33 152.34 -50.66 151.68 -51 151 Z M120 154 C120.33 154.99 120.66 155.98 121 157 C121 156.01 121 155.02 121 154 C120.67 154 120.34 154 120 154 Z M-129 170 C-128 172 -128 172 -128 172 Z M-130 172 C-129 174 -129 174 -129 174 Z M-131 174 C-139.23745424 191.23041464 -144.28736018 209.11273914 -147 228 C-147.13148438 228.88300781 -147.26296875 229.76601562 -147.3984375 230.67578125 C-148.39970142 238.72648439 -148.08453971 246.90297447 -148 255 C-144.08987715 251.67639558 -141.3772845 247.58629794 -140.63623047 242.50634766 C-140.4876401 239.60443475 -140.44608838 236.7181569 -140.4375 233.8125 C-139.99647751 215.50658863 -136.80108878 198.81170389 -131.61669922 181.26977539 C-130.96266081 178.86257227 -130.46342138 176.45040137 -130 174 C-130.33 174 -130.66 174 -131 174 Z M-117 265 C-120.33707239 269.40132791 -122.91720025 273.28880507 -123.1875 278.875 C-118.49927318 299.12328999 -104.9001391 317.21813566 -91 332 C-90.4740625 332.59039062 -89.948125 333.18078125 -89.40625 333.7890625 C-68.21301056 356.60423353 -35.17179301 368.58139914 -4.6862793 369.92553711 C13.92100231 370.43578518 31.69406861 366.72246259 49 360 C49 359.67 49 359.34 49 359 C48.16078506 358.99413376 47.32157013 358.98826752 46.45692444 358.98222351 C38.47117615 358.92384229 30.48569418 358.85151486 22.50020695 358.76428509 C18.39672444 358.71993193 14.29333328 358.68060348 10.18969727 358.65356445 C6.21482125 358.62717547 2.24030371 358.58653598 -1.73434639 358.53681374 C-3.23580968 358.52038144 -4.7373346 358.50872259 -6.23887444 358.50238609 C-40.32239929 358.34428817 -65.36860053 345.77317603 -89.26513672 322.06469727 C-99 312.19402522 -99 312.19402522 -99 306 C-90.76657381 306.1349742 -85.35982838 308.79990503 -79 314 C-74.90938103 318.32968111 -71.66424855 322.67150289 -69 328 C-62.4 328 -55.8 328 -49 328 C-53.75007638 313.74977085 -66.95892575 298.90210528 -80.0078125 291.3515625 C-84.92673392 289.12969982 -90.01054496 287.5868412 -95.203125 286.140625 C-102.8871717 283.83224883 -108.51751991 281.32135424 -112.6875 274.0625 C-113.96611285 271.07907001 -115.04052703 268.09983573 -116 265 C-116.33 265 -116.66 265 -117 265 Z M65.40698242 364.22949219 C44.82839885 376.6435763 21.65816778 382.26744567 -2 385 C-2 385.33 -2 385.66 -2 386 C25.6834822 387.36396719 53.08665339 378.38084568 77.375 365.75 C78.21498535 365.31333008 79.0549707 364.87666016 79.92041016 364.42675781 C80.69690918 364.01264648 81.4734082 363.59853516 82.2734375 363.171875 C82.96872559 362.8015918 83.66401367 362.43130859 84.38037109 362.04980469 C86.16886868 361.08501837 86.16886868 361.08501837 87 359 C78.13801917 357.64049158 72.76372129 359.77493682 65.40698242 364.22949219 Z " fill="#89BE28" transform="translate(207,0)"/>
</svg>
